<?xml version="1.0" encoding="UTF-8"?>
<svg width="425px" height="100px" viewBox="0 0 425 100" version="1.1" xmlns="http://www.w3.org/2000/svg" xmlns:xlink="http://www.w3.org/1999/xlink">
    <!-- Generator: Sketch 51.2 (57519) - http://www.bohemiancoding.com/sketch -->
    <title>Wordmark</title>
    <desc>Created with Sketch.</desc>
    <defs></defs>
    <g id="Wordmark" stroke="none" stroke-width="1" fill="none" fill-rule="evenodd">
        <g id="Group" transform="translate(0.000000, 7.000000)" fill-rule="nonzero">
            <polygon id="Rectangle" fill="#555555" transform="translate(28.160254, 58.500000) rotate(30.000000) translate(-28.160254, -58.500000) " points="16.7935843 30.998884 32.5435843 21.9056172 39.5269238 86.001116 23.7769238 95.0943828"></polygon>
            <polygon id="Rectangle" fill="#313131" transform="translate(53.733207, 51.495455) rotate(15.000000) translate(-53.733207, -51.495455) " points="40.8090517 16.4147345 59.5149565 11.5851054 66.6573625 85.8764877 46.0683862 91.405805"></polygon>
            <rect id="Rectangle" fill="#1A1A1A" x="68" y="0" width="19" height="88"></rect>
        </g>
        <path d="M123.2624,82.3382157 C131.138586,82.3382157 138.408912,76.6431425 138.408912,65.3741678 C138.408912,54.1051931 131.138586,48.4101198 123.2624,48.4101198 C115.386214,48.4101198 108.115889,54.1051931 108.115889,65.3741678 C108.115889,76.5219707 115.386214,82.3382157 123.2624,82.3382157 Z M123.2624,33.7483356 C141.074698,33.7483356 154.524801,46.9560586 154.524801,65.3741678 C154.524801,83.6711052 141.074698,97 123.2624,97 C105.450102,97 92,83.6711052 92,65.3741678 C92,46.9560586 105.450102,33.7483356 123.2624,33.7483356 Z M157.151531,78.5818908 L170.96515,75.5525965 C171.328666,80.2782956 174.842657,84.6404794 181.870638,84.6404794 C187.202211,84.6404794 189.746824,81.8535286 189.746824,78.7030626 C189.746824,76.0372836 187.929243,73.8561917 183.324703,72.8868176 L175.448517,71.069241 C163.937168,68.5246338 158.726768,61.6178429 158.726768,53.2569907 C158.726768,42.5938748 168.178192,33.7483356 181.022434,33.7483356 C197.986527,33.7483356 203.681615,44.5326232 204.408648,50.954727 L190.958545,53.9840213 C190.473857,50.4700399 187.929243,45.9866844 181.143606,45.9866844 C176.902583,45.9866844 173.509764,48.5312916 173.509764,51.9241012 C173.509764,54.8322237 175.690862,56.6498003 178.962508,57.2556591 L187.444555,59.0732357 C199.198248,61.4966711 205.13568,68.6458056 205.13568,77.3701731 C205.13568,87.0639148 197.623011,97 181.99181,97 C164.058341,97 157.878564,85.36751 157.151531,78.5818908 Z M208.974132,78.9454061 C208.974132,68.2822903 216.850318,62.3448735 226.78643,60.8908123 L241.448253,58.7097204 C244.841072,58.2250333 245.931621,56.5286285 245.931621,54.4687084 C245.931621,50.2276964 242.659974,46.713715 235.874337,46.713715 C228.846355,46.713715 224.968848,51.1970706 224.48416,56.4074567 L210.185853,53.3781625 C211.15523,44.0479361 219.758448,33.7483356 235.753165,33.7483356 C254.656011,33.7483356 261.683993,44.4114514 261.683993,56.4074567 L261.683993,85.7310253 C261.683993,88.8814913 262.047509,93.1225033 262.411025,95.1824234 L247.62803,95.1824234 C247.264514,93.6071904 247.02217,90.3355526 247.02217,88.0332889 C243.992867,92.758988 238.297779,96.8788282 229.452216,96.8788282 C216.729146,96.8788282 208.974132,88.2756325 208.974132,78.9454061 Z M232.845035,84.8828229 C239.630672,84.8828229 245.931621,81.6111851 245.931621,71.069241 L245.931621,68.4034621 L232.481518,70.4633822 C228.361667,71.069241 225.09002,73.3715047 225.09002,77.976032 C225.09002,81.4900133 227.634634,84.8828229 232.845035,84.8828229 Z M299.450631,48.6524634 C291.210928,48.6524634 284.304119,54.5898802 284.304119,65.3741678 C284.304119,76.1584554 291.3321,82.2170439 299.571803,82.2170439 C307.811505,82.2170439 311.931356,76.7643142 313.26425,72.159787 L327.441385,76.885486 C324.775598,86.8215712 315.445347,97 299.571803,97 C282.001849,97 268.188231,83.6711052 268.188231,65.3741678 C268.188231,46.9560586 281.759505,33.7483356 299.087115,33.7483356 C315.324175,33.7483356 324.533254,43.8055925 327.077868,53.8628495 L312.658389,58.7097204 C311.204324,53.7416778 307.447989,48.6524634 299.450631,48.6524634 Z M350.425027,60.1637816 L350.425027,95.1824234 L334.309138,95.1824234 L334.309138,7.45406125 L350.425027,7.45406125 L350.425027,40.5339547 C354.302534,35.9294274 360.845827,33.9906791 366.540915,33.9906791 C381.687427,33.9906791 388.715409,44.5326232 388.715409,57.6191744 L388.715409,95.1824234 L372.59952,95.1824234 L372.59952,60.4061252 C372.59952,53.7416778 369.327874,48.5312916 361.57286,48.5312916 C354.787222,48.5312916 350.788543,53.620506 350.425027,60.1637816 Z M416.182419,95.1824234 L400.06653,95.1824234 L400.06653,35.5659121 L416.182419,35.5659121 L416.182419,95.1824234 Z M398.127777,16.057257 C398.127777,10.4833555 402.611144,6 408.063888,6 C413.637805,6 418,10.4833555 418,16.057257 C418,21.3888149 413.637805,25.8721704 408.063888,25.8721704 C402.611144,25.8721704 398.127777,21.3888149 398.127777,16.057257 Z" id="osachi" fill="#111111"></path>
    </g>
</svg>